<svg width="171" height="171" viewBox="0 0 171 171" fill="none" xmlns="http://www.w3.org/2000/svg">
<g clip-path="url(#clip0_477_9723)">
<path d="M124.109 152.364C112.753 158.943 99.5607 162.684 85.5 162.684C42.8835 162.684 8.31616 128.117 8.31616 85.5002C8.31616 42.8838 42.8835 8.31641 85.5 8.31641C99.5607 8.31641 112.753 12.0904 124.109 18.6365C101.03 31.9625 85.5 56.9111 85.5 85.5002C85.5 114.089 101.03 139.004 124.109 152.364Z" fill="#DEC8AB"/>
<path d="M162.838 48.9503C155.858 34.1548 144.803 21.7306 130.876 13.0136C111.505 0.923398 88.5601 -2.91742 66.3167 2.22594C44.0734 7.3359 25.1365 20.8289 13.0462 40.2C0.922587 59.5711 -2.91823 82.4824 2.22513 104.759C7.36849 127.002 20.8615 145.939 40.1991 158.03C53.8257 166.546 69.4562 171.055 85.454 171.055H86.4894C102.42 170.855 117.917 166.246 131.343 157.762C135.251 155.291 136.387 150.148 133.915 146.24C131.444 142.332 126.3 141.197 122.393 143.668C111.605 150.515 99.114 154.222 86.289 154.389C73.13 154.556 60.2716 150.916 49.0497 143.936C33.4527 134.183 22.5982 118.953 18.4902 101.052C14.3488 83.1503 17.4548 64.7144 27.2072 49.1173C47.313 16.9546 89.8626 7.13551 122.025 27.2414C133.247 34.255 142.131 44.2412 147.742 56.131C153.219 67.7203 155.357 80.5787 153.921 93.2701C153.42 97.8457 156.693 101.987 161.302 102.488C165.877 102.989 170.019 99.716 170.52 95.107C172.29 79.3095 169.618 63.3451 162.838 48.9503Z" fill="black"/>
<path d="M46.2585 101.677L46.2574 101.679C43.5236 106.53 43.5406 112.31 46.3103 117.127C49.0458 121.892 53.9451 124.76 59.4216 124.76H112.508C118.004 124.76 122.937 121.855 125.705 117.005C128.457 112.19 128.475 106.444 125.739 101.643L99.1638 54.9792C99.1635 54.9787 99.1632 54.9782 99.1629 54.9777C96.4443 50.1241 91.5265 47.2383 86.0159 47.2383C80.5044 47.2383 75.5874 50.142 72.8693 54.9597C72.8691 54.96 72.8689 54.9604 72.8688 54.9607L46.2585 101.677ZM79.509 58.8093L79.5103 58.807C80.8651 56.3992 83.2789 54.9836 86.0159 54.9836C88.7344 54.9836 91.166 56.4151 92.5215 58.8242L92.5227 58.8264L119.117 105.527C120.453 107.882 120.441 110.723 119.066 113.137C117.677 115.566 115.227 116.997 112.491 116.997H59.4046C56.6986 116.997 54.268 115.596 52.9146 113.223C51.5418 110.811 51.5262 107.936 52.8982 105.51C52.8983 105.509 52.8984 105.509 52.8985 105.509L79.509 58.8093ZM84.7796 71.7855L84.7679 71.7883L84.7564 71.7917C82.6319 72.4102 81.3489 74.3695 81.3489 76.6642V76.6828L81.3503 76.7014C81.3975 77.3346 81.4407 77.9722 81.4842 78.6117L81.4842 78.6127L81.4843 78.6134C81.5276 79.2509 81.571 79.8902 81.6183 80.5258C81.7522 82.9411 81.886 85.3323 82.0199 87.7233L82.0207 87.7376C82.1549 90.1349 82.2891 92.5321 82.4233 94.9534L82.4234 94.9546C82.533 96.8535 83.9931 98.2575 85.8751 98.2575C87.7724 98.2575 89.2364 96.7565 89.3271 94.853L89.3277 94.8411V94.8292C89.3277 93.8291 89.328 92.9345 89.4202 91.9474L89.4211 91.9382L89.4216 91.9288C89.5084 90.3774 89.5991 88.8258 89.6899 87.2735L89.69 87.2722C89.7808 85.7197 89.8716 84.1664 89.9585 82.613L89.9587 82.6086C90.0058 81.6087 90.0725 80.608 90.1397 79.6016L90.1398 79.5997C90.2068 78.5956 90.2742 77.5857 90.3218 76.5751L90.3224 76.5633V76.5516C90.3224 75.7809 90.2211 75.0681 89.9207 74.3479L89.9209 74.3479L89.9157 74.3364C89.0129 72.3159 86.8939 71.2786 84.7796 71.7855ZM85.875 100.006C83.4427 100.006 81.4277 102.073 81.4277 104.528C81.4277 106.984 83.4427 109.051 85.875 109.051C88.2017 109.051 90.3227 107.01 90.228 104.624C90.3222 102.054 88.3207 100.006 85.875 100.006Z" fill="black" stroke="black"/>
</g>
<defs>
<clipPath id="clip0_477_9723">
<rect width="171" height="171" fill="white"/>
</clipPath>
</defs>
</svg>
