<svg xmlns="http://www.w3.org/2000/svg" version="1.1" xmlns:xlink="http://www.w3.org/1999/xlink" width="512" height="512" x="0" y="0" viewBox="0 0 682.667 682.667" style="enable-background:new 0 0 512 512" xml:space="preserve" class=""><g><defs><clipPath id="b" clipPathUnits="userSpaceOnUse"><path d="M0 512h512V0H0Z" fill="#dec8ab" opacity="1" data-original="#000000"></path></clipPath></defs><mask id="a"><rect width="100%" height="100%" fill="#ffffff" opacity="1" data-original="#ffffff"></rect><path d="M0 0c11.046 0 20 8.954 20 20S11.046 40 0 40s-20-8.954-20-20S-11.046 0 0 0" style="fill-opacity:1;fill-rule:nonzero;stroke:none" transform="matrix(1.33333 0 0 -1.33333 234.667 362.667)" fill="#ffffff" data-original="#ffffff"></path><path d="M0 0c11.046 0 20 8.954 20 20S11.046 40 0 40s-20-8.954-20-20S-11.046 0 0 0" style="fill-opacity:1;fill-rule:nonzero;stroke:none" transform="matrix(1.33333 0 0 -1.33333 448 362.667)" fill="#ffffff" data-original="#ffffff"></path></mask><g mask="url(#a)"><g clip-path="url(#b)" transform="matrix(1.33333 0 0 -1.33333 0 682.667)"><path d="M0 0c11.046 0 20 8.954 20 20S11.046 40 0 40s-20-8.954-20-20S-11.046 0 0 0" style="fill-opacity:1;fill-rule:nonzero;stroke:none" transform="translate(176 240)" fill="#dec8ab" data-original="#000000" opacity="1"></path><path d="M0 0c11.046 0 20 8.954 20 20S11.046 40 0 40s-20-8.954-20-20S-11.046 0 0 0" style="fill-opacity:1;fill-rule:nonzero;stroke:none" transform="translate(336 240)" fill="#dec8ab" data-original="#000000" opacity="1"></path><path d="m0 0 40-200a60.13 60.13 0 0 0 1.167-11.832c0-33.137-26.863-60-60-60h-280c-33.137 0-60 26.863-60 60 0 4.051.4 8.007 1.167 11.832l40 200c5.493 27.471 29.746 48.168 58.833 48.168h200C-29.746 48.168-5.493 27.471 0 0Z" style="stroke-width:40;stroke-linecap:round;stroke-linejoin:round;stroke-miterlimit:10;stroke-dasharray:none;stroke-opacity:1" transform="translate(414.833 291.832)" fill="none" stroke="#dec8ab" stroke-width="40" stroke-linecap="round" stroke-linejoin="round" stroke-miterlimit="10" stroke-dasharray="none" stroke-opacity="" data-original="#000000" opacity="1" class=""></path><path d="M0 0v0c0 44.183 35.817 80 80 80v0c44.183 0 80-35.817 80-80v0" style="stroke-width:40;stroke-linecap:round;stroke-linejoin:round;stroke-miterlimit:10;stroke-dasharray:none;stroke-opacity:1" transform="translate(176 412)" fill="none" stroke="#dec8ab" stroke-width="40" stroke-linecap="round" stroke-linejoin="round" stroke-miterlimit="10" stroke-dasharray="none" stroke-opacity="" data-original="#000000" opacity="1" class=""></path><path d="M0 0h160" style="stroke-width:40;stroke-linecap:round;stroke-linejoin:round;stroke-miterlimit:10;stroke-dasharray:none;stroke-opacity:1" transform="translate(176 100)" fill="none" stroke="#dec8ab" stroke-width="40" stroke-linecap="round" stroke-linejoin="round" stroke-miterlimit="10" stroke-dasharray="none" stroke-opacity="" data-original="#000000" opacity="1" class=""></path></g></g></g></svg>