<svg xmlns="http://www.w3.org/2000/svg" version="1.1" xmlns:xlink="http://www.w3.org/1999/xlink" width="512" height="512" x="0" y="0" viewBox="0 0 490 490" style="enable-background:new 0 0 512 512" xml:space="preserve" class=""><g><path d="M316.554 108.336c4.553 6.922 2.629 16.223-4.296 20.774a58.608 58.608 0 0 0-9.621 7.929 14.963 14.963 0 0 1-10.715 4.497 14.959 14.959 0 0 1-10.506-4.291c-5.917-5.801-6.009-15.298-.207-21.212a88.693 88.693 0 0 1 14.562-11.992c6.927-4.55 16.231-2.627 20.783 4.295zm130.468 177.533L298.183 437.573C283.994 452.035 265.106 460 245 460s-38.994-7.965-53.183-22.427L42.978 285.869c-57.304-58.406-57.304-153.441 0-211.847C70.83 45.634 107.882 30 147.31 30c36.369 0 70.72 13.304 97.69 37.648C271.971 43.304 306.32 30 342.689 30c39.428 0 76.481 15.634 104.332 44.021 57.305 58.407 57.305 153.442.001 211.848zM425.596 95.028C403.434 72.44 373.991 60 342.69 60c-31.301 0-60.745 12.439-82.906 35.027-1.122 1.144-2.129 2.533-3.538 3.777-7.536 6.654-16.372 6.32-22.491 0-1.308-1.352-2.416-2.633-3.538-3.777C208.055 72.44 178.612 60 147.31 60c-31.301 0-60.744 12.439-82.906 35.027-45.94 46.824-45.94 123.012 0 169.836l148.839 151.704C221.742 425.229 233.02 430 245 430s23.258-4.771 31.757-13.433l148.839-151.703c45.939-46.824 45.939-123.012 0-169.836zm-21.427 21.006c-8.975-9.148-19.475-16.045-31.208-20.499-7.746-2.939-16.413.953-19.355 8.698-2.942 7.744.953 16.407 8.701 19.348 7.645 2.902 14.521 7.431 20.436 13.459 23.211 23.658 23.211 62.153 0 85.811l-52.648 53.661c-5.803 5.915-5.711 15.412.206 21.212a14.961 14.961 0 0 0 10.506 4.291c3.889 0 7.776-1.502 10.714-4.497l52.648-53.661c34.575-35.241 34.575-92.582 0-127.823z" fill="#dec8ab" opacity="1" data-original="#000000" class=""></path></g></svg>