<svg xmlns="http://www.w3.org/2000/svg" version="1.1" xmlns:xlink="http://www.w3.org/1999/xlink" width="512" height="512" x="0" y="0" viewBox="0 0 512 512" style="enable-background:new 0 0 512 512" xml:space="preserve" class=""><g><path d="M260 412v40c0 22.091-17.909 40-40 40s-40-17.909-40-40v-40M407.404 330.129C414.407 344.575 420 357.043 420 372c0 22.091-17.909 40-40 40H60c-22.091 0-40-17.909-40-40 0-40 40-54.2 40-144.021 0-83.929 61.129-159.507 144.698-167.267C209.847 60.234 214.951 60 220 60s10.153.234 15.302.712a149.613 149.613 0 0 1 39.348 9.109" style="stroke-width:40;stroke-linecap:round;stroke-linejoin:round;stroke-miterlimit:10;" fill="none" stroke="#dec8ab" stroke-width="40" stroke-linecap="round" stroke-linejoin="round" stroke-miterlimit="10" data-original="#000000" opacity="1" class=""></path><circle cx="372" cy="140" r="120" style="stroke-width:40;stroke-linecap:round;stroke-linejoin:round;stroke-miterlimit:10;" fill="none" stroke="#dec8ab" stroke-width="40" stroke-linecap="round" stroke-linejoin="round" stroke-miterlimit="10" data-original="#000000" opacity="1" class=""></circle><path d="M220 20v40M372 100v80" style="stroke-width:40;stroke-linecap:round;stroke-linejoin:round;stroke-miterlimit:10;" fill="none" stroke="#dec8ab" stroke-width="40" stroke-linecap="round" stroke-linejoin="round" stroke-miterlimit="10" data-original="#000000" opacity="1" class=""></path></g></svg>