<svg xmlns="http://www.w3.org/2000/svg" version="1.1" xmlns:xlink="http://www.w3.org/1999/xlink" width="512" height="512" x="0" y="0" viewBox="0 0 32 32" style="enable-background:new 0 0 512 512" xml:space="preserve" class="hovered-paths"><g><g fill="#000"><path d="M23 20a1 1 0 1 1 0-2h3a1 1 0 1 1 0 2zM17 23a1 1 0 1 1 0-2h9a1 1 0 1 1 0 2zM5.707 22.293a1 1 0 0 0-1.414 1.414L5.586 25l-1.293 1.293a1 1 0 1 0 1.414 1.414L7 26.414l1.293 1.293a1 1 0 0 0 1.414-1.414L8.414 25l1.293-1.293a1 1 0 0 0-1.414-1.414L7 23.586z" fill="#dec8ab" opacity="1" data-original="#000000" class="hovered-path"></path><path fill-rule="evenodd" d="M4 3a3 3 0 0 1 3-3h22a3 3 0 0 1 3 3v22a3 3 0 0 1-3 3H13.326A7 7 0 1 1 4 18.674zm25 23H13.93A7 7 0 0 0 6 18.07V3a1 1 0 0 1 1-1h6v7a1 1 0 0 0 1 1h8a1 1 0 0 0 1-1V2h6a1 1 0 0 1 1 1v22a1 1 0 0 1-1 1zM15 2v6h6V2zM7 20a5 5 0 1 0 0 10 5 5 0 0 0 0-10z" clip-rule="evenodd" fill="#dec8ab" opacity="1" data-original="#000000" class="hovered-path"></path></g></g></svg>